# xmcd CD database file
#
# Track frame offsets:
#	150
#	13705
#	25986
#	40871
#	54728
#	65715
#	78500
#	93735
#	105953
#	122622
#	136796
#	148863
#	161030
#	173681
#	185527
#	199283
#	210905
#	220186
#	233662
#	247693
#	257117
#
# Disc length: 3600 seconds
#
# Revision: 1
# Processed by: cddbd v1.4PL0 Copyright (c) Steve Scherf et al.
# Submitted via: Feurio! 1.65 - http://www.feurio.com
#
DISCID=240e0e15
DTITLE=LOS FAMOSOS - HUAYNOS CRIOLLOS
DYEAR=1900
DGENRE=
TTITLE0=MI LIENDROZA - CARMENCITA LARA (MI LIENDROZA)
TTITLE1=ROSAURA LINDAURA - LOS KIPUS (ROSAURA LINDAURA)
TTITLE2=CHOLA TRAICIONERA - CHOLO BERROCAL (CHOLA TRAICIONERA)
TTITLE3=LA FLOR DE PAPA - LUIS A MORALES (LA FLOR DE PAPA)
TTITLE4=CHORINA - LOS KIPUS (CHORINA)
TTITLE5=QUISIERA QUERERTE - BDA STA LUCIA DE NOCHE (QUISIERA QUERERTE)
TTITLE6=PIO PIO - AMANDA PORTALES (PIO PIO)
TTITLE7=MANBO DE MACHAHUAY - LUIS A MORALES (MANBO DE MACHAHUAY)
TTITLE8=HUAYLAS - CARLOS PICKLIN3 (HUAYLAS)
TTITLE9=RIO SANTA CAUDALOSO -  (RIO SANTA CAUDALOSO)
TTITLE10=AMOR DE GUARDIA MUNICIPAL - LUIS A MORALES (AMOR DE GUARDIA MUNICIPAL)
TTITLE11=5*8=40 - LOS KIPUS (5*8=40)
TTITLE12=COMPADRITO GALLINAZO - LOS INDIOS AGUARUNA (COMPADRITO GALLINAZO)
TTITLE13=CARRITOS DEL GOBIERNO - GILBERTO  DEL HUASCARAN (CARRITOS DEL 
TTITLE13=GOBIERNO)
TTITLE14=MI CAJAMARCA - LOS MOCHICAS (MI CAJAMARCA)
TTITLE15=LLAULILLAY - RAFAEL (LLAULILLAY)
TTITLE16=DE LOS ANDES AL MAR - LOS ZAÑARTU (DE LOS ANDES AL MAR)
TTITLE17=EL PASTORCITO - CHOLO BEROCAL (EL PASTORCITO)
TTITLE18=EN TU BODA - HUARACINA (EN TU BODA)
TTITLE19=A DIOS A DIOS - LOS CHANKAS (A DIOS A DIOS)
TTITLE20=LINDA MARUJITA - HUAYLAS (LINDA MARUJITA)
EXTD=
EXTT0=
EXTT1=
EXTT2=
EXTT3=
EXTT4=
EXTT5=
EXTT6=
EXTT7=
EXTT8=
EXTT9=
EXTT10=
EXTT11=
EXTT12=
EXTT13=
EXTT14=
EXTT15=
EXTT16=
EXTT17=
EXTT18=
EXTT19=
EXTT20=
PLAYORDER=
